<svg width="32" height="28" viewBox="0 0 32 28" fill="none" xmlns="http://www.w3.org/2000/svg">
<path d="M28.3656 13.7625C29.9551 13.7625 31.3 15.1074 31.3 16.6969V24.5219C31.3 26.1725 29.9551 27.4562 28.3656 27.4562H20.5406C18.89 27.4562 17.6062 26.1725 17.6062 24.5219V9.85C17.6062 4.47031 21.9467 0.0687506 27.3875 0.0687506H27.8766C28.6713 0.0687506 29.3437 0.741212 29.3437 1.53594V4.47031C29.3437 5.32617 28.6713 5.9375 27.8766 5.9375H27.3875C25.1867 5.9375 23.475 7.71035 23.475 9.85V13.7625H28.3656ZM10.7594 13.7625C12.3488 13.7625 13.6937 15.1074 13.6937 16.6969V24.5219C13.6937 26.1725 12.3488 27.4562 10.7594 27.4562H2.93437C1.28379 27.4562 0 26.1725 0 24.5219V9.85C0 4.47031 4.34043 0.0687506 9.78125 0.0687506H10.2703C11.065 0.0687506 11.7375 0.741212 11.7375 1.53594V4.47031C11.7375 5.32617 11.065 5.9375 10.2703 5.9375H9.78125C7.58047 5.9375 5.86875 7.71035 5.86875 9.85V13.7625H10.7594Z" fill="white"/>
</svg>
